<svg  xmlns="http://www.w3.org/2000/svg" xmlns:xlink="http://www.w3.org/1999/xlink" aria-hidden="true" role="img" class="iconify iconify--logos" preserveAspectRatio="xMidYMid meet" width="205.62" height="195.2" viewBox="0 0 205.62 195.2"><defs><style>.cls-1{fill:#764abc;}</style></defs><path class="cls-1" d="m142.47,136.33c7.59-.78,13.34-7.33,13.08-15.18-.26-7.85-6.8-14.13-14.65-14.13h-.52c-8.11.26-14.39,7.06-14.13,15.18.26,3.92,1.83,7.33,4.19,9.68-8.9,17.53-22.5,30.35-42.91,41.08-13.87,7.33-28.26,9.94-42.65,8.11-11.77-1.57-20.93-6.8-26.69-15.44-8.37-12.82-9.16-26.69-2.09-40.56,4.97-9.94,12.82-17.27,17.79-20.93-1.05-3.4-2.62-9.16-3.4-13.34C-7.46,118.27-3.53,155.43,7.98,172.96c8.63,13.08,26.17,21.19,45.53,21.19,5.23,0,10.47-.52,15.7-1.83,33.49-6.54,58.87-26.43,73.27-56Z"/><path class="cls-1" d="m188.53,103.88c-19.89-23.29-49.19-36.11-82.69-36.11h-4.19c-2.35-4.71-7.33-7.85-12.82-7.85h-.52c-8.11.26-14.39,7.06-14.13,15.18.26,7.85,6.8,14.13,14.65,14.13h.52c5.76-.26,10.73-3.92,12.82-8.9h4.71c19.89,0,38.73,5.76,55.73,17.01,13.08,8.63,22.5,19.89,27.74,33.49,4.45,10.99,4.19,21.72-.52,30.88-7.33,13.87-19.62,21.46-35.85,21.46-10.47,0-20.41-3.14-25.64-5.49-2.88,2.62-8.11,6.8-11.77,9.42,11.25,5.23,22.76,8.11,33.75,8.11,25.12,0,43.7-13.87,50.76-27.74,7.59-15.18,7.06-41.34-12.56-63.58Z"/><path class="cls-1" d="m55.6,140.77c.26,7.85,6.8,14.13,14.65,14.13h.52c8.11-.26,14.39-7.06,14.13-15.18-.26-7.85-6.8-14.13-14.65-14.13h-.52c-.52,0-1.31,0-1.83.26-10.73-17.79-15.18-37.16-13.61-58.09,1.05-15.7,6.28-29.31,15.44-40.56,7.59-9.68,22.24-14.39,32.18-14.65,27.74-.52,39.51,34.02,40.3,47.88,3.4.78,9.16,2.62,13.08,3.92C152.16,21.98,125.99,0,100.87,0c-23.55,0-45.27,17.01-53.9,42.13-12.04,33.49-4.19,65.68,10.47,91.06-1.31,1.83-2.09,4.71-1.83,7.59Z"/></svg>